<!--?xml version="1.0" standalone="no"?-->
              <svg id="sw-js-blob-svg" viewBox="0 0 100 100" xmlns="http://www.w3.org/2000/svg" version="1.1">
                    <defs> 
                        <linearGradient id="sw-gradient" x1="0" x2="1" y1="1" y2="0">
                            <stop id="stop1" stop-color="rgba(61.253, 160.585, 126.937, 1)" offset="0%"></stop>
                            <stop id="stop2" stop-color="rgba(92.54, 146.924, 128.502, 1)" offset="100%"></stop>
                        </linearGradient>
                    </defs>
                <path fill="url(#sw-gradient)" d="M10.8,-22.6C13.2,-17.3,13.9,-12.8,18.3,-9.2C22.7,-5.6,30.8,-2.8,35.1,2.5C39.5,7.8,40.1,15.7,37,21.6C33.9,27.5,27.2,31.4,20.4,35.6C13.6,39.8,6.8,44.2,0.4,43.5C-6.1,42.9,-12.1,37.2,-18.8,33C-25.5,28.7,-32.8,26,-35.4,20.7C-37.9,15.5,-35.7,7.7,-36.2,-0.3C-36.7,-8.3,-39.9,-16.6,-37.2,-21.6C-34.6,-26.6,-25.9,-28.3,-18.7,-30.8C-11.5,-33.4,-5.8,-36.8,-0.8,-35.4C4.2,-34.1,8.3,-27.9,10.8,-22.6Z" width="100%" height="100%" transform="translate(50 50)" stroke-width="0" style="transition: all 0.3s ease 0s;" stroke="url(#sw-gradient)"></path>
              </svg>